# xmcd CD database file generated by OrangeCD 5.1
#
# Track frame offsets:
#	217
#	17770
#	34855
#	47255
#	61535
#	87497
#	105242
#	118915
#	139517
#	150685
#	163820
#	184870
#
# Disc length: 2836 seconds
#
# Revision: 3
# Processed by: cddbd v1.5PL3 Copyright (c) Steve Scherf et al.
# Submitted via: OrangeCD 5.1
#
DISCID=900b120c
DTITLE=The Tractors - The Tractors
DYEAR=1994
DGENRE=Country
TTITLE0=The Tulsa Shuffle
TTITLE1=Fallin' Apart
TTITLE2=Thirty Days
TTITLE3=I've Had Enough
TTITLE4=The Little Man
TTITLE5=Baby Likes To Rock It
TTITLE6=Badly Bent
TTITLE7=The Blue Collar Rock
TTITLE8=Doreen
TTITLE9=Settin' The Woods On Fire
TTITLE10=Tryin' To Get To New Orleans
TTITLE11=The Tulsa Shuffle (Revisited)
EXTD=
EXTT0=
EXTT1=
EXTT2=
EXTT3=
EXTT4=
EXTT5=
EXTT6=
EXTT7=
EXTT8=
EXTT9=
EXTT10=
EXTT11=
PLAYORDER=
